<svg width="52" height="52" viewBox="0 0 52 52" fill="none" xmlns="http://www.w3.org/2000/svg">
<circle cx="26" cy="26" r="25.5" stroke="#FF4C41"/>
<path d="M19.4223 24.437C20.6231 27.694 24.138 31.2267 27.5153 32.5796C27.5904 32.4669 27.6904 32.3416 27.753 32.2163C28.3409 31.0889 28.9288 29.974 29.5042 28.8465C29.7919 28.2828 30.2047 28.0699 30.8426 28.1951C33.5194 28.6837 36.2088 29.1597 38.8981 29.6107C39.3859 29.6984 39.7112 29.9239 39.9488 30.3498C41.2747 32.6673 41.3748 35.0349 40.0864 37.3775C38.798 39.72 36.7341 40.9602 34.0698 40.9978C23.475 41.1481 13.906 33.5442 11.6044 23.1592C11.1416 21.0547 10.8039 18.9251 11.1291 16.7704C11.8796 11.935 17.6461 9.40451 21.7238 12.0978C22.0115 12.2857 22.2867 12.6741 22.3493 13.0123C22.8621 15.7182 23.3249 18.424 23.8003 21.1299C23.9253 21.8564 23.7752 22.1445 23.1248 22.4953C21.899 23.1467 20.6731 23.7856 19.4223 24.437ZM33.7196 39.006C33.7946 39.006 33.9947 39.006 34.1949 39.006C37.6973 38.8807 39.9863 35.1978 38.5604 32.0034C38.4728 31.8029 38.2602 31.5649 38.0725 31.5273C35.871 31.1139 33.657 30.7381 31.4555 30.3373C31.1178 30.2746 30.9677 30.3874 30.8176 30.6755C30.2297 31.8405 29.6167 32.993 29.0163 34.158C28.6161 34.9096 28.2033 35.0725 27.4403 34.7593C22.637 32.78 19.2346 29.3852 17.2833 24.5748C16.9831 23.8232 17.1332 23.4223 17.8587 23.034C19.0095 22.4201 20.1603 21.8063 21.3361 21.2301C21.6738 21.0547 21.7614 20.8668 21.6988 20.5035C21.2986 18.3488 20.9358 16.1942 20.5355 14.0521C20.498 13.8391 20.2854 13.5635 20.0852 13.4758C17.2333 12.1229 13.7434 13.9017 13.1555 17.0084C12.8678 18.5493 13.1054 20.0901 13.3681 21.6059C15.0943 31.5399 23.5876 38.8181 33.7196 39.006Z" fill="white"/>
</svg>
