<svg width="52" height="52" fill="none" xmlns="http://www.w3.org/2000/svg"><circle cx="26" cy="26" r="25.5" stroke="#FF4C41"/><path d="M19.422 24.437c1.201 3.257 4.716 6.79 8.093 8.143.075-.113.175-.238.238-.364.588-1.127 1.176-2.242 1.751-3.37.288-.563.7-.776 1.339-.65a568.9 568.9 0 008.055 1.415c.488.087.813.313 1.05.739 1.327 2.317 1.427 4.685.138 7.027-1.288 2.343-3.352 3.583-6.016 3.62-10.595.151-20.164-7.453-22.466-17.838-.462-2.104-.8-4.234-.475-6.389.75-4.835 6.517-7.365 10.595-4.672.288.188.563.576.625.914.513 2.706.976 5.412 1.451 8.118.125.726-.025 1.015-.675 1.365-1.226.652-2.452 1.29-3.703 1.942zM33.72 39.006h.475c3.502-.125 5.791-3.808 4.365-7.003-.087-.2-.3-.438-.488-.476-2.201-.413-4.415-.789-6.617-1.19-.337-.062-.487.05-.637.338-.588 1.165-1.201 2.318-1.802 3.483-.4.752-.813.914-1.576.601-4.803-1.979-8.205-5.374-10.157-10.184-.3-.752-.15-1.153.576-1.541 1.15-.614 2.301-1.228 3.477-1.804.338-.175.425-.363.363-.727-.4-2.154-.763-4.309-1.164-6.45-.037-.214-.25-.49-.45-.577-2.852-1.353-6.342.426-6.93 3.532-.287 1.541-.05 3.082.213 4.598 1.726 9.934 10.22 17.212 20.352 17.4z" fill="#fff"/></svg>